<svg width="489" height="503" viewBox="0 0 489 503" fill="none" xmlns="http://www.w3.org/2000/svg">
<path d="M432.08 20.42C447.75 15.09 466.66 8.32004 474.08 5.38004C481.5 2.44004 487.91 0.0200444 488.32 4.44127e-05C488.73 -0.00995559 487.85 1.67004 486.36 3.73004C484.88 5.79004 475.66 17.94 465.87 30.73C456.09 43.52 444.59 58.43 440.33 63.86C436.07 69.3 428.53 79.0201 423.58 85.47C418.63 91.91 412.74 99.5 410.49 102.33C408.25 105.16 395 122.11 381.04 139.98C367.09 157.86 335.22 198.58 310.21 230.48C285.21 262.38 262.49 291.4 259.73 294.98C256.96 298.56 252.4 304.4 249.59 307.98C246.77 311.56 240.49 319.65 235.62 325.98C230.75 332.31 226.1 338.15 225.28 338.98C223.96 340.31 223.88 340.25 224.53 338.48C224.94 337.38 227.23 329.51 229.64 320.98C232.04 312.46 234.92 302.56 236.03 298.98C237.15 295.4 238.07 292.03 238.08 291.48C238.08 290.93 237.26 292.06 236.25 293.98C235.25 295.9 231.35 303.33 227.59 310.48C223.83 317.63 219.26 325.84 217.42 328.73C215.58 331.62 210.77 338.14 206.72 343.23C202.67 348.32 195.58 356.77 190.97 362.02C186.35 367.27 169.53 385.71 153.58 403C137.63 420.3 113.93 445.93 100.91 459.96C87.9001 474 73.3501 489.53 68.6001 494.48C63.8501 499.43 60.2901 502.81 60.7101 501.98C61.1201 501.15 63.4701 497.33 65.9401 493.48C68.4001 489.63 77.6101 474.78 86.4001 460.48C95.2001 446.18 106.67 427.51 111.89 418.98C117.12 410.46 126.14 395.83 131.94 386.48C137.74 377.13 148.88 359.36 156.71 346.98C164.53 334.61 174.51 318.86 178.88 311.98C183.25 305.11 194.6 287.33 204.11 272.48C213.61 257.63 223.72 241.88 226.57 237.48C229.42 233.08 234.83 224.76 238.58 218.98C242.34 213.21 256.66 190.93 270.4 169.48C284.14 148.03 304.82 115.63 316.36 97.48C327.89 79.33 339.95 60.43 343.16 55.48C348.82 46.74 349.13 46.44 354.28 45.09C357.2 44.33 369.48 40.65 381.58 36.91C393.68 33.16 416.41 25.74 432.08 20.42Z" fill="#EA272B"/>
<path d="M6.28013 79.48C2.83013 76.73 0.0001274 74.16 0.0001274 73.76C-0.0098726 73.37 0.570127 73.25 1.28013 73.5C2.00013 73.75 9.10013 75.1 17.0801 76.51C25.0601 77.9201 35.1801 79.72 39.5801 80.5C43.9801 81.29 56.5801 83.07 67.5801 84.45C78.5801 85.84 93.4301 87.43 100.58 87.99C107.73 88.54 120.78 89.72 129.58 90.6C138.38 91.48 156.15 92.51 169.08 92.89C189.45 93.48 192.18 93.74 189.58 94.85C187.93 95.56 179.38 99.27 170.58 103.1C161.78 106.94 150.82 111.74 146.23 113.78C141.64 115.81 137.67 117.93 137.41 118.48C137.15 119.03 140.76 134.11 145.44 151.98C150.13 169.86 156.05 192.58 158.62 202.48C161.18 212.38 165.7 229.82 168.68 241.23C171.65 252.64 174.09 262.77 174.11 263.73C174.12 264.69 166.77 278.08 157.77 293.48C148.77 308.88 135.19 332.06 127.58 344.98C119.97 357.9 113.38 368.93 112.94 369.48C112.43 370.11 111.96 369.92 111.67 368.98C111.43 368.15 108.01 356.01 104.09 341.98C100.16 327.96 94.7601 308.83 92.0801 299.48C89.4001 290.13 84.6601 273.71 81.5501 262.98C78.4401 252.26 72.5401 231.56 68.4501 216.98C64.3501 202.41 57.5901 178.56 53.4201 163.98C49.2601 149.41 44.5501 133.21 42.9701 127.98C41.3801 122.76 40.3101 118.37 40.5801 118.23C40.8601 118.09 42.3201 118.6 43.8301 119.36C45.3401 120.12 52.0901 122.6 58.8301 124.86C65.5701 127.13 71.3101 128.98 71.5801 128.98C71.8501 128.98 67.4701 125.48 61.8301 121.21C56.1901 116.93 48.8801 111.38 45.5801 108.87C42.2801 106.36 36.2001 101.84 32.0801 98.81C27.9501 95.78 21.8701 91.32 18.5601 88.89C15.2501 86.47 9.73013 82.23 6.28013 79.48Z" fill="#EA272B"/>
</svg>
